<?xml version="1.0" encoding="utf-8"?>
<!-- Generator: Adobe Illustrator 23.0.2, SVG Export Plug-In . SVG Version: 6.00 Build 0)  -->
<svg version="1.1" id="图层_1" xmlns="http://www.w3.org/2000/svg" xmlns:xlink="http://www.w3.org/1999/xlink" x="0px" y="0px"
	 viewBox="0 0 340 88" style="enable-background:new 0 0 340 88;" xml:space="preserve">
<style type="text/css">
	.st0{fill:#0075C9;}
</style>
<path class="st0" d="M287.2,68h5.4l-1.7,18h-5.4L287.2,68z M85.8,78c0.5,0.8,0.7,1.7,0.6,2.9c-0.1,0.9-0.4,1.8-0.9,2.5
	s-1.1,1.3-1.9,1.8c-0.5,0.3-1.2,0.5-2.1,0.6c-1.2,0.2-2,0.2-2.4,0.2h-9.3l1.7-18h10.1c1.7,0,2.9,0.4,3.7,1.3c0.8,0.9,1.2,1.9,1,3.2
	c-0.1,1.1-0.5,2-1.2,2.7c-0.5,0.5-1.1,0.9-2,1.2C84.5,76.7,85.3,77.3,85.8,78z M76.3,75.1h2.3c0.8,0,1.4-0.1,1.8-0.4S81,74,81,73.4
	c0.1-0.5-0.1-0.9-0.4-1.2c-0.3-0.3-0.9-0.4-1.7-0.4h-2.4L76.3,75.1z M80.7,79c-0.3-0.3-1-0.5-1.9-0.5H76l-0.4,3.6h2.7
	c0.9,0,1.6-0.2,2-0.5s0.6-0.8,0.7-1.4C81.2,79.7,81,79.3,80.7,79z M111.9,86h5.4l1.7-18h-5.4L111.9,86z M129.9,68h-5.4l-1.7,18h13.8
	l0.4-4.4h-8.4L129.9,68z M324.4,74.1l-2.9-6.1h-6l5.8,10.5l-0.7,7.5h5.4l0.7-7.5l7.8-10.5h-5.9L324.4,74.1z M18.4,78.1L16.7,68h-5.1
	L7.9,78.1L7,68H1.9L4,86h5.3l4.1-11.3l2,11.3h5.3l5.6-18h-5.1L18.4,78.1z M279.8,80.8l2.1,5.2h-6.1l-2.3-5.5
	c-0.3-0.7-0.6-1.2-0.8-1.4c-0.4-0.3-0.8-0.4-1.3-0.4h-0.5l-0.7,7.3h-5.4l1.7-18h9c1.7,0,2.9,0.1,3.8,0.4s1.5,0.8,2,1.6
	c0.5,0.8,0.6,1.8,0.5,2.9c-0.1,1-0.4,1.9-0.9,2.6s-1.1,1.3-1.9,1.8c-0.5,0.3-1.1,0.5-2,0.7c0.6,0.2,1.1,0.4,1.3,0.7
	c0.2,0.1,0.4,0.5,0.8,0.9C279.4,80.1,279.7,80.5,279.8,80.8z M275.9,72.1c-0.3-0.3-1-0.5-2-0.5h-2.4l-0.4,3.7h2.3
	c0.2,0,0.7-0.1,1.4-0.2c0.4-0.1,0.7-0.3,0.9-0.6c0.3-0.3,0.4-0.7,0.4-1C276.3,72.9,276.2,72.4,275.9,72.1z M101.8,79
	c-0.1,1-0.4,1.8-1,2.3s-1.3,0.8-2.3,0.8c-0.9,0-1.6-0.3-2.1-0.8C96,80.7,95.8,80,95.9,79L97,68h-5.4l-1,10.7c-0.1,0.9,0,1.9,0.2,3
	c0.1,0.7,0.5,1.4,0.9,2.1c0.5,0.7,1.1,1.2,1.7,1.6s1.5,0.6,2.4,0.7c1,0.1,1.9,0.2,2.8,0.2c1.5,0,2.7-0.2,3.8-0.6
	c0.8-0.3,1.5-0.8,2.3-1.5s1.3-1.5,1.7-2.5c0.4-0.9,0.7-1.9,0.8-3l1-10.7h-5.4L101.8,79z M228.9,73.4c0.7-1,1.7-1.5,3-1.5
	c0.5,0,1,0.1,1.4,0.3c0.4,0.2,0.8,0.6,1,1c0.2,0.3,0.3,0.7,0.4,1.2l4.9-1.1c-0.4-1.9-1.2-3.3-2.4-4.2c-1.2-0.9-2.8-1.4-5-1.4
	c-2.8,0-5.1,0.8-6.7,2.4c-1.7,1.6-2.7,3.9-3,6.9c-0.2,2.2,0,4.1,0.8,5.5c0.7,1.4,1.7,2.4,2.8,3s2.7,0.9,4.6,0.9
	c1.6,0,2.9-0.2,3.9-0.7c1.1-0.5,2-1.2,2.7-2.1c0.8-0.9,1.4-2.1,1.8-3.4l-4.6-1.5c-0.3,1.1-0.8,2-1.4,2.6c-0.6,0.6-1.4,0.9-2.4,0.9
	c-1.1,0-1.9-0.4-2.4-1.1s-0.7-2.1-0.5-4.1C228,75.3,228.4,74.1,228.9,73.4z M203,86h14.7l0.4-4.1h-9.3l0.3-3.5h8.4l0.4-3.7h-8.4
	l0.3-2.9h9l0.4-3.8h-14.4L203,86z M296.4,72.4h5.5L300.6,86h5.4l1.3-13.6h5.5l0.4-4.4h-16.4L296.4,72.4z M191.9,71
	c0.8,0,1.3,0.2,1.7,0.6s0.6,1,0.7,1.8l5.1-0.3c0-1.9-0.6-3.2-1.7-4.1c-1.1-0.9-2.7-1.3-5-1.3c-1.8,0-3.3,0.2-4.4,0.7
	c-1.1,0.5-1.9,1.1-2.5,1.9s-0.9,1.7-1,2.6c-0.1,1.4,0.3,2.6,1.2,3.5s2.5,1.6,4.8,2.2c1.4,0.3,2.3,0.7,2.7,1c0.4,0.4,0.5,0.8,0.5,1.3
	s-0.3,0.9-0.8,1.3s-1.1,0.6-1.8,0.6c-1,0-1.8-0.4-2.3-1.1c-0.3-0.5-0.5-1.1-0.5-2l-5.2,0.3c0,1.8,0.5,3.3,1.5,4.5s3,1.8,6,1.8
	c1.7,0,3.1-0.3,4.3-0.8s2.1-1.2,2.8-2.2s1.1-2,1.2-3.2c0.1-1-0.1-1.9-0.4-2.7c-0.4-0.8-1.1-1.5-2-2c-1-0.5-2.6-1.1-4.9-1.6
	c-0.9-0.2-1.5-0.4-1.7-0.7c-0.2-0.2-0.3-0.5-0.3-0.8c0-0.4,0.2-0.7,0.6-1C190.8,71.2,191.2,71,191.9,71z M254.8,79
	c-0.1,1-0.4,1.8-1,2.3s-1.3,0.8-2.3,0.8c-0.9,0-1.6-0.3-2.1-0.8c-0.5-0.6-0.7-1.3-0.6-2.3l1.1-11h-5.4l-1,10.7c-0.1,0.9,0,1.9,0.2,3
	c0.1,0.7,0.5,1.4,0.9,2.1c0.5,0.7,1.1,1.2,1.7,1.6c0.6,0.4,1.5,0.6,2.4,0.7c1,0.1,1.9,0.2,2.8,0.2c1.5,0,2.7-0.2,3.8-0.6
	c0.8-0.3,1.5-0.8,2.3-1.5s1.3-1.5,1.7-2.5c0.4-0.9,0.7-1.9,0.8-3l1-10.7h-5.4L254.8,79z M27.9,86h14.7l0.4-4.1h-9.3l0.3-3.5h8.4
	l0.4-3.7h-8.4l0.3-2.9h9l0.4-3.8H29.7L27.9,86z M157.5,73.5c0.2,1.1,0.2,2.3,0.1,3.5c-0.2,1.9-0.5,3.4-1.1,4.5
	c-0.5,1.1-1.2,1.9-2,2.7c-0.8,0.7-1.7,1.2-2.6,1.4c-1.2,0.3-2.3,0.5-3.3,0.5h-8l1.7-18h8c1.6,0,2.8,0.2,3.8,0.7
	c0.9,0.4,1.7,1.1,2.2,1.9C157,71.4,157.3,72.4,157.5,73.5z M151.7,73.1c-0.5-0.7-1.5-1.1-2.9-1.1h-1.3l-0.9,9.8h1.3
	c1.1,0,1.9-0.1,2.4-0.4s0.9-0.7,1.2-1.4c0.3-0.6,0.6-1.7,0.7-3.1C152.4,75.1,152.2,73.8,151.7,73.1z M228,62h-18l27.4-60h19.4l16,60
	h-18l-2-9.9h-21L228,62z M237,39.2h13.3L245.7,17L237,39.2z M209.6,2h-18L186,62h18L209.6,2z M315.5,62h16.6l5.7-60h-16.6L318,36.1
	L299.3,2h-16.6L277,62h16.6l3.2-34.1L315.5,62z M185.7,2h-54.3L130,16.7h18.2L143.9,62h18l4.3-45.3h18.2L185.7,2z M109.5,2l-5.7,60
	h18l5.7-60H109.5z M99.9,48.5H69l1.1-11.8H98l1.2-12.3H71.3l0.9-9.5h30L103.4,2H55.5l-5.7,60h48.8L99.9,48.5z M24.6,14.9H51L52.2,2
	H7.9L2.2,62h18l2.3-24.5h22.4L46,25.4H23.6L24.6,14.9z"/>
</svg>
